<svg width="121" height="124" viewBox="0 0 121 124" fill="none" xmlns="http://www.w3.org/2000/svg">
<path d="M108.654 35.9603C107.69 30.5062 103.096 26.5344 97.764 25.2944C89.7855 23.5603 75.0198 22.3203 59.044 22.3203C43.0777 22.3203 28.0755 23.5603 20.0877 25.2944C14.7655 26.5344 10.1619 30.2544 9.19766 35.9603C8.22399 42.1603 7.25977 50.8403 7.25977 62.0003C7.25977 73.1603 8.22399 81.8403 9.43399 88.0403C10.4077 93.4944 15.0019 97.4663 20.324 98.7063C28.794 100.44 43.314 101.68 59.2898 101.68C75.2655 101.68 89.7855 100.44 98.2555 98.7063C103.578 97.4663 108.172 93.7462 109.146 88.0403C110.11 81.8403 111.32 72.9084 111.566 62.0003C111.074 50.8403 109.864 42.1603 108.654 35.9603ZM45.9798 79.3603V44.6403L75.5019 62.0003L45.9798 79.3603Z" fill="white"/>
</svg>
